<?xml version="1.0" encoding="utf-8"?>
<!-- Generator: Adobe Illustrator 16.0.0, SVG Export Plug-In . SVG Version: 6.00 Build 0)  -->
<!DOCTYPE svg PUBLIC "-//W3C//DTD SVG 1.1 Basic//EN" "http://www.w3.org/Graphics/SVG/1.1/DTD/svg11-basic.dtd">
<svg version="1.1" baseProfile="basic" id="Layer_1"
	 xmlns="http://www.w3.org/2000/svg" xmlns:xlink="http://www.w3.org/1999/xlink" x="0px" y="0px" width="22.783px"
	 height="32.593px" viewBox="0 0 22.783 32.593" xml:space="preserve">
<g>
	<path fill="#3D4B9F" d="M19.447,3.338L19.447,3.338c-4.447-4.45-11.66-4.45-16.112,0l0,0c-4.009,4.011-4.457,11.555-1.053,16.091
		l9.11,13.164l9.114-13.164C23.904,14.893,23.456,7.349,19.447,3.338z M11.502,16.713c-2.998,0-5.432-2.431-5.432-5.431
		c0-2.999,2.434-5.43,5.432-5.43c3.003,0,5.429,2.432,5.429,5.43C16.932,14.282,14.506,16.713,11.502,16.713z"/>
	<path fill="#FFFFFF" d="M11.502,16.713c-2.998,0-5.432-2.431-5.432-5.431c0-2.999,2.434-5.43,5.432-5.43
		c3.003,0,5.429,2.432,5.429,5.43C16.932,14.282,14.506,16.713,11.502,16.713z"/>
</g>
<g>
</g>
<g>
</g>
<g>
</g>
<g>
</g>
<g>
</g>
<g>
</g>
</svg>
