<?xml version="1.0" encoding="utf-8"?>
<!-- Generator: Adobe Illustrator 16.0.0, SVG Export Plug-In . SVG Version: 6.00 Build 0)  -->
<!DOCTYPE svg PUBLIC "-//W3C//DTD SVG 1.1//EN" "http://www.w3.org/Graphics/SVG/1.1/DTD/svg11.dtd">
<svg version="1.1" id="Layer_1" xmlns="http://www.w3.org/2000/svg" xmlns:xlink="http://www.w3.org/1999/xlink" x="0px" y="0px"
	 width="658.08px" height="179.858px" viewBox="0 0 658.08 179.858" enable-background="new 0 0 658.08 179.858"
	 xml:space="preserve">
<g>
	<path fill="#FFFFFF" d="M578.576,68.233c-1.362,0-2.371,0-3.381,0c-30.214,0-60.428-0.001-90.642,0
		c-3.255,0-3.206,0.001-3.163,3.244c0.098,7.412,0.826,14.744,2.829,21.899c3.993,14.268,13.212,23.159,27.716,26.248
		c13.604,2.896,27.249,2.906,40.439-1.814c5.424-1.941,10.308-5.393,15.424-8.182c0.757-0.412,1.438-0.963,2.368-1.596
		c2.206,2.904,4.351,5.726,6.601,8.686c-5.759,4.456-11.82,7.9-18.395,10.438c-12.345,4.766-25.194,5.492-38.219,4.633
		c-6.588-0.436-13.049-1.612-19.286-3.85c-15.47-5.549-24.318-16.887-28.177-32.471c-2.996-12.1-3.398-24.42-2.863-36.814
		c0.336-7.768,1.218-15.441,3.296-22.95c5.347-19.321,18.104-30.562,37.651-34.127c11.533-2.104,23.125-2.192,34.649,0.276
		c16.011,3.431,25.999,13.157,30.095,28.979C578.669,43,578.61,55.42,578.576,68.233z M566.71,57.197
		c0.09-0.443,0.221-0.728,0.191-0.996c-0.729-6.894-1.039-13.867-2.312-20.661c-2.422-12.935-10.397-20.79-23.368-23.279
		c-10.475-2.011-20.961-1.823-31.301,0.858c-11.342,2.941-19.61,9.71-23.811,20.758c-1.725,4.535-2.662,9.395-3.662,14.169
		c-0.619,2.946-0.682,6.009-1.007,9.151C510.078,57.197,538.294,57.197,566.71,57.197z"/>
	<path fill="#FFFFFF" d="M355.08,66.269c0-20.043-0.002-40.085,0.002-60.128c0-2.845,0.009-2.85,2.905-2.85
		c19.165-0.002,38.333-0.2,57.492,0.119c5.846,0.098,11.839,1.021,17.464,2.622c11.772,3.351,19.156,11.44,22.169,23.294
		c2.627,10.338,2.517,20.752-0.47,30.989c-4.003,13.72-13.57,21.502-27.336,24.181c-4.633,0.901-9.428,1.277-14.155,1.332
		c-14.481,0.166-28.966,0.06-43.448,0.062c-2.893,0-2.9,0.004-2.901,2.815c-0.003,12.582,0,25.163-0.003,37.744
		c0,3.051-0.006,3.052-3.143,3.054c-2.121,0.002-4.249-0.103-6.362,0.031c-1.765,0.112-2.253-0.575-2.241-2.261
		c0.062-8.631,0.027-17.263,0.027-25.895C355.08,89.676,355.08,77.972,355.08,66.269z M366.8,44.326
		c0,8.997,0.074,17.995-0.053,26.99c-0.031,2.24,0.629,2.822,2.832,2.809c15.141-0.093,30.281-0.022,45.422-0.073
		c2.549-0.009,5.117-0.199,7.641-0.559c11.399-1.622,18.807-8.313,20.989-19.626c0.889-4.605,1.104-9.47,0.772-14.156
		c-0.636-8.979-4.165-16.546-12.57-21.022c-5.369-2.859-11.225-3.722-17.182-3.759c-15.141-0.094-30.282,0.003-45.422-0.072
		c-1.943-0.01-2.49,0.561-2.471,2.479C366.851,26.333,366.8,35.33,366.8,44.326z"/>
	<path fill="#FFFFFF" d="M75.671,3.273c4.079,0,7.855,0,12.001,0c0,0.968,0,1.885,0,2.803c0,25.245-0.072,50.49,0.055,75.734
		c0.029,5.754,0.395,11.557,1.224,17.246c1.456,9.992,7.536,16.402,17.096,19.086c14.149,3.973,28.5,4.098,42.678,0.229
		c11.101-3.029,16.836-10.385,17.84-21.833c0.344-3.928,0.547-7.881,0.555-11.822c0.048-26.196,0.024-52.392,0.026-78.588
		c0-2.977,0.007-2.979,2.998-2.981c2.842-0.002,5.684,0,8.746,0C178.935,4.051,179,4.755,179,5.459
		c-0.011,27.732,0.059,55.466-0.121,83.197c-0.034,5.228-0.738,10.51-1.697,15.661c-2.292,12.313-9.542,20.618-21.581,24.109
		c-5.85,1.696-11.981,2.775-18.056,3.264c-11.692,0.94-23.403,0.69-34.86-2.341c-11.6-3.068-20.48-9.395-24.005-21.413
		c-1.286-4.384-2.235-8.991-2.446-13.539c-0.481-10.369-0.504-20.763-0.544-31.147c-0.071-18.952-0.02-37.904-0.02-56.855
		C75.671,5.451,75.671,4.508,75.671,3.273z"/>
	<path fill="#FFFFFF" d="M210.132,84.026c0,14.268-0.042,28.536,0.045,42.803c0.013,2.083-0.504,2.897-2.669,2.713
		c-2.107-0.179-4.241-0.036-6.362-0.039c-2.909-0.004-2.913-0.006-2.917-2.815c-0.004-2.634-0.001-5.268-0.001-7.902
		c0-23.56-0.111-47.12,0.074-70.679c0.049-6.258,0.635-12.567,1.622-18.75c2.27-14.216,10.999-22.593,24.729-26.127
		c11.264-2.899,22.735-3.188,34.207-2.272c6.078,0.486,12.208,1.521,18.077,3.158c13.395,3.736,21.139,12.939,23.152,26.596
		c0.998,6.769,1.408,13.676,1.453,20.525c0.166,25.096,0.066,50.193,0.065,75.289c0,2.973-0.005,2.975-2.959,2.978
		c-2.342,0.003-4.688-0.092-7.023,0.03c-1.684,0.088-2.256-0.574-2.075-2.165c0.074-0.649,0.011-1.315,0.011-1.974
		c-0.017-26.779,0.013-53.559-0.1-80.338c-0.017-3.924-0.476-7.887-1.145-11.759c-1.737-10.055-7.952-16.146-17.563-18.98
		c-9.398-2.771-19.033-3.033-28.698-2.321c-4.062,0.299-8.159,0.888-12.103,1.885c-12.254,3.1-18.671,10.59-19.274,23.199
		c-0.548,11.461-0.407,22.955-0.539,34.435C210.092,75.685,210.132,79.855,210.132,84.026z"/>
	<path fill="#FFFFFF" d="M0.603,156.59c0-3.275-0.067-6.556,0.086-9.826c0.019-0.398,1.202-1.02,1.879-1.067
		c5.754-0.409,11.548-0.444,17.268-1.117c5.634-0.663,10.975-2.497,15.512-6.138c5.322-4.271,7.549-10.15,8.234-16.648
		c0.521-4.934,0.774-9.918,0.784-14.881C44.431,73.325,44.399,39.737,44.4,6.15c0-2.998,0.004-3,2.934-3.004
		c2.342-0.002,4.685,0.051,7.024-0.017c1.295-0.036,1.939,0.384,1.796,1.748c-0.045,0.435-0.003,0.878-0.003,1.316
		c0,33.003,0.024,66.005-0.017,99.007c-0.01,8.041-0.128,16.075-1.791,24.017c-2.553,12.196-9.683,20.221-21.492,24.073
		c-10.157,3.313-20.663,3.742-31.226,3.591C1.352,156.878,1.08,156.73,0.603,156.59z"/>
	<path fill="#FFFFFF" d="M657.493,1.191c0,3.609,0,7.158,0,11.02c-1.519-0.089-2.946-0.168-4.373-0.257
		c-8.866-0.556-17.704-0.445-26.359,1.816c-12.558,3.28-18.749,10.795-19.623,23.716c-0.271,4.009-0.423,8.033-0.429,12.051
		c-0.037,25.609-0.02,51.219-0.02,76.828c0,0.936,0,1.871,0,3.118c-3.705,0-7.188,0.04-10.668-0.056
		c-0.399-0.011-0.954-0.724-1.121-1.217c-0.201-0.594-0.07-1.302-0.07-1.96c-0.002-26.341-0.129-52.683,0.09-79.021
		c0.053-6.537,0.779-13.149,1.98-19.58c2.258-12.086,9.777-19.758,21.403-23.549c6.734-2.196,13.683-3.159,20.704-3.385
		c5.692-0.182,11.4,0.134,17.102,0.243C656.533,0.967,656.955,1.098,657.493,1.191z"/>
	<path fill="#FFFFFF" d="M322.79,66.408c0-20.109,0.031-40.219-0.045-60.328c-0.008-2.148,0.449-3.052,2.77-2.837
		s4.678,0.103,7.015,0.029c1.35-0.042,1.877,0.509,1.777,1.805c-0.033,0.437,0,0.878,0,1.316c0,39.999,0,79.998-0.001,119.998
		c0,3.108-0.005,3.109-3.083,3.111c-2.121,0.002-4.247-0.094-6.36,0.028c-1.663,0.097-2.113-0.531-2.102-2.137
		c0.063-9.141,0.029-18.281,0.029-27.422C322.79,88.784,322.79,77.597,322.79,66.408z"/>
	<path fill="#FFFFFF" d="M446.485,151.595c-0.327,0.946-0.672,1.886-0.979,2.838c-2.494,7.722-5.006,15.438-7.449,23.176
		c-0.382,1.211-0.885,1.837-2.264,1.82c-1.256-0.015-1.813-0.519-2.172-1.655c-3.355-10.592-6.748-21.172-10.123-31.758
		c-0.127-0.398-0.182-0.818-0.268-1.22c3.027-0.842,3.424-0.658,4.27,1.986c2.469,7.729,4.925,15.463,7.393,23.192
		c0.258,0.809,0.563,1.601,1.305,2.398c0.945-2.887,1.895-5.772,2.833-8.661c1.876-5.77,3.77-11.534,5.601-17.319
		c0.389-1.227,0.813-2.051,2.352-2.038c1.516,0.012,1.768,0.972,2.109,2.038c2.438,7.587,4.884,15.17,7.334,22.752
		c0.326,1.01,0.691,2.006,1.535,3.007c0.249-0.638,0.532-1.264,0.74-1.914c2.502-7.796,4.994-15.595,7.485-23.394
		c0.845-2.644,1.093-2.782,4.201-2.088c-1.198,3.828-2.377,7.643-3.587,11.447c-2.215,6.966-4.443,13.929-6.681,20.888
		c-0.367,1.144-0.5,2.33-2.304,2.364c-1.921,0.037-2.084-1.238-2.48-2.455c-2.533-7.785-5.049-15.576-7.576-23.364
		c-0.221-0.681-0.479-1.349-0.719-2.022C446.855,151.607,446.67,151.601,446.485,151.595z"/>
	<path fill="#FFFFFF" d="M508.827,162.232c-0.089,1.196-0.083,2.744-0.335,4.25c-1.393,8.305-6.472,12.833-14.936,13.253
		c-2.102,0.104-4.254,0.067-6.328-0.256c-7.676-1.193-11.833-5.06-12.873-12.735c-0.511-3.762-0.34-7.765,0.347-11.508
		c1.036-5.654,4.771-9.205,10.429-10.594c3.973-0.976,7.966-1.019,11.94-0.121c6.888,1.555,10.993,6.515,11.574,13.872
		C508.738,159.558,508.757,160.728,508.827,162.232z M477.393,161.861c0.131,8.404,3.586,13.241,10.69,14.279
		c2.408,0.352,4.977,0.202,7.391-0.202c4.988-0.834,7.971-4.002,9.121-8.884c0.853-3.617,0.822-7.239-0.146-10.84
		c-1.268-4.714-4.347-7.594-9.11-8.355c-2.409-0.385-4.961-0.41-7.383-0.095c-5.601,0.729-8.907,4.023-9.972,9.547
		C477.695,158.811,477.585,160.344,477.393,161.861z"/>
	<path fill="#FFFFFF" d="M326.419,150.72c0,8.768,0.015,17.536-0.028,26.304c-0.004,0.708-0.194,1.744-0.671,2.059
		c-1.33,0.873-2.747-0.033-2.75-1.668c-0.021-10.383-0.024-20.766,0.025-31.149c0.002-0.601,0.573-1.733,0.779-1.711
		c1.282,0.142,3.009,0.128,3.711,0.933c2.251,2.577,4.118,5.49,6.136,8.271c4.078,5.622,8.155,11.245,12.238,16.864
		c0.416,0.571,0.864,1.12,1.814,1.603c0-0.752,0-1.502,0-2.254c0.001-7.75,0.004-15.501-0.001-23.252
		c-0.001-1.215-0.095-2.397,1.726-2.34c1.176,0.037,1.75,0.411,1.748,1.653c-0.018,10.529,0.003,21.059-0.046,31.588
		c-0.003,0.525-0.493,1.458-0.829,1.493c-0.881,0.091-1.853-0.083-2.689-0.406c-0.469-0.182-0.755-0.859-1.099-1.331
		c-6.104-8.396-12.205-16.797-18.312-25.192c-0.414-0.569-0.87-1.107-1.307-1.66C326.716,150.589,326.568,150.654,326.419,150.72z"
		/>
	<path fill="#FFFFFF" d="M534.413,165.164c2.735,4.714,5.319,9.169,8.007,13.799c-2.418,0.637-3.938,0.374-5.086-1.883
		c-1.82-3.578-3.909-7.029-6.076-10.412c-0.517-0.807-1.748-1.493-2.721-1.6c-2.168-0.236-4.381-0.03-6.572-0.087
		c-1.393-0.036-1.952,0.479-1.922,1.923c0.072,3.508-0.016,7.02,0.037,10.528c0.02,1.274-0.352,1.87-1.73,1.854
		c-1.296-0.016-1.844-0.471-1.842-1.798c0.025-10.456,0.027-20.912,0.002-31.367c-0.003-1.375,0.652-1.763,1.896-1.734
		c5.26,0.12,10.527,0.065,15.777,0.339c5.179,0.27,8.258,3.087,8.756,7.557c0.758,6.778-1.242,10.505-6.547,12.209
		C535.841,164.668,535.296,164.863,534.413,165.164z M526.998,161.729c0.001,0.04,0.003,0.079,0.004,0.118
		c2.33-0.113,4.682-0.065,6.986-0.374c3.74-0.501,5.46-2.726,5.478-6.677c0.018-4.002-1.647-6.306-5.448-6.627
		c-4.134-0.351-8.31-0.267-12.465-0.21c-0.502,0.007-1.395,1.007-1.416,1.573c-0.133,3.5-0.035,7.008-0.084,10.513
		c-0.018,1.236,0.503,1.712,1.688,1.691C523.492,161.708,525.245,161.729,526.998,161.729z"/>
	<path fill="#FFFFFF" d="M360.196,161.609c0-4.976,0.046-9.951-0.026-14.926c-0.023-1.656,0.457-2.347,2.234-2.322
		c6.218,0.084,12.438,0.05,18.656,0.019c1.279-0.007,2.03,0.207,2.047,1.778c0.019,1.623-0.666,1.967-2.102,1.951
		c-4.975-0.053-9.951,0.03-14.925-0.045c-1.666-0.025-2.401,0.463-2.312,2.236c0.117,2.335,0.123,4.686-0.002,7.021
		c-0.096,1.805,0.706,2.263,2.336,2.243c4.756-0.058,9.512-0.012,14.268-0.02c1.23-0.002,2.291-0.047,2.293,1.766
		c0.003,1.86-1.123,1.711-2.319,1.71c-4.756-0.004-9.513,0.051-14.267-0.026c-1.67-0.027-2.383,0.47-2.311,2.238
		c0.114,2.775,0.117,5.563-0.002,8.338c-0.076,1.793,0.502,2.437,2.352,2.396c4.973-0.107,9.949-0.026,14.925-0.042
		c1.173-0.004,2.174-0.02,2.172,1.649c-0.003,1.633-0.954,1.7-2.153,1.697c-6.219-0.016-12.439-0.059-18.657,0.025
		c-1.778,0.024-2.256-0.668-2.233-2.323C360.241,171.854,360.196,166.73,360.196,161.609z"/>
	<path fill="#FFFFFF" d="M607.582,147.128c-0.65,0.979-1.2,1.808-1.834,2.763c-3.688-1.925-7.48-2.865-11.502-2.559
		c-1.371,0.104-2.763,0.344-4.072,0.754c-2.178,0.683-3.299,2.265-3.431,4.579c-0.136,2.384,0.698,4.331,2.985,5.062
		c3.048,0.975,6.221,1.554,9.332,2.327c1.699,0.423,3.418,0.8,5.07,1.366c3.609,1.234,5.383,3.904,5.467,7.65
		c0.086,3.824-0.944,7.371-4.742,8.899c-8.037,3.233-15.827,2.162-23.451-2.042c0.332-0.66,0.52-1.119,0.781-1.529
		c0.27-0.422,0.613-0.795,1.022-1.313c0.697,0.346,1.335,0.664,1.976,0.979c4.979,2.457,10.214,2.993,15.591,1.839
		c3.491-0.748,5.159-2.857,5.212-6.1c0.049-2.945-1.485-4.867-4.996-5.752c-3.681-0.928-7.467-1.449-11.127-2.442
		c-5.69-1.544-7.77-5.239-6.532-10.979c0.571-2.65,2.071-4.597,4.59-5.446c6.296-2.123,12.511-1.746,18.544,1.088
		C606.781,146.421,607.035,146.702,607.582,147.128z"/>
	<path fill="#FFFFFF" d="M555.308,162.895c2.324-2.512,4.656-5.017,6.971-7.537c2.869-3.123,5.715-6.267,8.59-9.385
		c1.67-1.813,2.255-1.939,5.287-1.175c-1.371,1.542-2.645,3.001-3.945,4.435c-2.262,2.489-4.477,5.025-6.841,7.415
		c-1.108,1.12-1.096,1.931-0.233,3.186c3.852,5.604,7.609,11.272,11.396,16.921c0.439,0.656,0.854,1.332,1.4,2.188
		c-2.248,0.57-3.854,0.594-5.221-1.534c-3.51-5.468-7.237-10.796-11.132-16.556c-2.317,2.576-4.522,4.949-6.61,7.422
		c-0.354,0.418-0.273,1.258-0.281,1.905c-0.031,2.34-0.044,4.681-0.004,7.021c0.021,1.265-0.207,2.072-1.772,2.097
		c-1.626,0.024-1.955-0.729-1.95-2.145c0.033-10.239,0.027-20.478,0.004-30.717c-0.002-1.287,0.256-2.05,1.799-2.072
		c1.649-0.024,1.939,0.778,1.926,2.17c-0.045,4.606-0.016,9.215-0.016,13.822c0,0.779,0,1.558,0,2.337
		C554.886,162.76,555.097,162.826,555.308,162.895z"/>
	<path fill="#FFFFFF" d="M405.458,163.89c-0.002,4.457-0.031,8.914,0.017,13.37c0.014,1.297-0.222,2.043-1.774,2.039
		c-1.529-0.003-2.043-0.562-2.036-2.065c0.044-8.693,0.022-17.388,0.017-26.082c-0.001-3.048-0.008-3.052-2.959-3.06
		c-2.703-0.007-5.407-0.052-8.109,0.013c-1.45,0.034-1.906-0.586-1.895-1.967c0.012-1.363,0.625-1.758,1.882-1.754
		c8.694,0.025,17.389,0.032,26.083-0.006c1.449-0.006,1.902,0.586,1.892,1.97c-0.011,1.372-0.633,1.768-1.886,1.751
		c-2.994-0.04-5.993,0.062-8.985-0.034c-1.68-0.053-2.32,0.475-2.279,2.237C405.53,154.828,405.459,159.359,405.458,163.89z"/>
	<path fill="#FFFFFF" d="M623.669,122.08c-0.027-4.549,3.449-8.128,7.946-8.182c4.567-0.055,8.319,3.632,8.28,8.137
		c-0.039,4.438-3.705,8.094-8.125,8.102C627.306,130.145,623.698,126.556,623.669,122.08z M631.828,115.311
		c-3.851-0.026-6.834,2.919-6.811,6.726c0.021,3.653,3.041,6.731,6.643,6.774c3.645,0.045,6.891-3.181,6.867-6.82
		C638.502,118.349,635.482,115.337,631.828,115.311z"/>
	<path fill="#FFFFFF" d="M634.078,123.414c0.493,0.96,0.986,1.92,1.48,2.881c-0.172,0.18-0.344,0.359-0.515,0.54
		c-0.622-0.618-1.393-1.146-1.833-1.873c-0.729-1.206-1.391-2.263-3.036-1.522c-0.227,1.089-0.452,2.178-0.678,3.266
		c-0.257-0.013-0.515-0.025-0.772-0.038c-0.106-0.64-0.275-1.276-0.305-1.919c-0.052-1.091-0.074-2.189-0.001-3.277
		c0.091-1.341-0.026-3.654,0.503-3.825c1.575-0.508,3.453-0.36,5.146-0.075c0.688,0.115,1.697,1.252,1.691,1.916
		c-0.014,1.292-0.641,2.578-1.014,3.866C634.523,123.373,634.3,123.393,634.078,123.414z M630.019,122.189
		c1.613-0.475,2.884-0.785,4.078-1.278c0.161-0.066,0.057-1.494-0.117-1.538c-1.255-0.322-2.56-0.449-3.961-0.655
		C630.019,119.951,630.019,120.73,630.019,122.189z"/>
</g>
</svg>
