<?xml version="1.0" encoding="utf-8"?>
<!-- Generator: Adobe Illustrator 16.0.0, SVG Export Plug-In . SVG Version: 6.00 Build 0)  -->
<!DOCTYPE svg PUBLIC "-//W3C//DTD SVG 1.1 Basic//EN" "http://www.w3.org/Graphics/SVG/1.1/DTD/svg11-basic.dtd">
<svg version="1.1" baseProfile="basic" id="Layer_1"
	 xmlns="http://www.w3.org/2000/svg" xmlns:xlink="http://www.w3.org/1999/xlink" x="0px" y="0px" width="6.695px" height="15px"
	 viewBox="0 0 6.695 15" xml:space="preserve">
<path fill="#EF4137" d="M6.695,9.931c0-0.697-0.212-1.283-0.646-1.788c-0.32-0.371-1.101-0.836-1.672-1.083
	C4.116,6.946,3.843,6.833,3.573,6.722C2.919,6.453,2.106,6.118,1.87,5.906C1.708,5.761,1.627,5.476,1.627,5.058
	c0-0.379,0.095-0.625,0.327-0.848c0.281-0.27,0.683-0.425,1.167-0.475c0.28,0.002,0.717,0.006,0.821,0.016
	c0.477,0.07,0.817,0.237,1.065,0.526c0.125,0.144,0.213,0.31,0.27,0.506c0.106,0.362,0.485,0.564,0.846,0.465
	c0.363-0.105,0.57-0.483,0.465-0.845C6.476,4.019,6.292,3.678,6.04,3.385C5.577,2.849,4.938,2.518,4.147,2.403
	C4.12,2.398,4.078,2.395,4.029,2.392v-1.71C4.029,0.305,3.723,0,3.347,0S2.665,0.305,2.665,0.682v1.755
	C1.99,2.56,1.44,2.813,1.009,3.226C0.507,3.709,0.263,4.31,0.263,5.058c0,0.821,0.234,1.448,0.696,1.862
	c0.41,0.369,1.192,0.691,2.095,1.063C3.316,8.091,3.58,8.2,3.833,8.311c0.55,0.237,1.078,0.603,1.181,0.722
	c0.164,0.19,0.316,0.432,0.316,0.898c0,0.504-0.152,0.72-0.301,0.864c-0.262,0.253-0.643,0.401-1.192,0.458
	c-0.145,0.021-0.319,0.011-0.521,0c-0.106-0.006-0.23-0.016-0.272-0.01c-0.592-0.059-1.034-0.238-1.393-0.565
	c-0.147-0.134-0.249-0.318-0.307-0.563C1.257,9.748,0.884,9.526,0.523,9.61c-0.366,0.088-0.592,0.455-0.504,0.822
	c0.123,0.513,0.364,0.936,0.714,1.253c0.513,0.469,1.142,0.747,1.932,0.869v1.764C2.665,14.694,2.971,15,3.347,15
	s0.682-0.306,0.682-0.682v-1.716c0.826-0.09,1.465-0.36,1.949-0.829C6.461,11.307,6.695,10.704,6.695,9.931z"/>
<g>
</g>
<g>
</g>
<g>
</g>
<g>
</g>
<g>
</g>
<g>
</g>
</svg>
