<?xml version="1.0" encoding="utf-8"?>
<!-- Generator: Adobe Illustrator 16.0.0, SVG Export Plug-In . SVG Version: 6.00 Build 0)  -->
<!DOCTYPE svg PUBLIC "-//W3C//DTD SVG 1.1 Basic//EN" "http://www.w3.org/Graphics/SVG/1.1/DTD/svg11-basic.dtd">
<svg version="1.1" baseProfile="basic" id="Layer_1"
	 xmlns="http://www.w3.org/2000/svg" xmlns:xlink="http://www.w3.org/1999/xlink" x="0px" y="0px" width="31.295px" height="30px"
	 viewBox="0 0 31.295 30" xml:space="preserve">
<g>
	<rect x="16.24" y="15.986" fill="#11BFF1" width="2.061" height="2.058"/>
	<rect x="24.473" y="15.986" fill="#11BFF1" width="2.059" height="2.058"/>
	<rect x="20.356" y="15.986" fill="#11BFF1" width="2.058" height="2.058"/>
	<rect x="16.24" y="11.726" fill="#11BFF1" width="2.061" height="2.057"/>
	<rect x="20.356" y="11.726" fill="#11BFF1" width="2.058" height="2.057"/>
	<rect x="24.473" y="11.726" fill="#11BFF1" width="2.059" height="2.057"/>
	<rect x="16.24" y="20.245" fill="#11BFF1" width="2.061" height="2.059"/>
	<rect x="20.356" y="20.245" fill="#11BFF1" width="2.058" height="2.059"/>
	<rect x="24.473" y="20.245" fill="#11BFF1" width="2.059" height="2.059"/>
	<path fill="#19191A" d="M31.295,27.113H5.212V2.858h14.745v1.95c-1.422,0.238-2.758,0.813-3.717,1.772v3.088h10.291V6.581
		c-0.963-0.959-2.295-1.535-3.717-1.772V1.429c0-0.789-0.64-1.429-1.43-1.429H3.783c-0.79,0-1.428,0.641-1.428,1.429v25.684H0v2.857
		h2.355V30h2.857v-0.029h26.083V27.113z"/>
</g>
<g>
</g>
<g>
</g>
<g>
</g>
<g>
</g>
<g>
</g>
<g>
</g>
</svg>
