<?xml version="1.0" encoding="utf-8"?>
<!-- Generator: Adobe Illustrator 16.0.0, SVG Export Plug-In . SVG Version: 6.00 Build 0)  -->
<!DOCTYPE svg PUBLIC "-//W3C//DTD SVG 1.1 Basic//EN" "http://www.w3.org/Graphics/SVG/1.1/DTD/svg11-basic.dtd">
<svg version="1.1" baseProfile="basic" id="Layer_1"
	 xmlns="http://www.w3.org/2000/svg" xmlns:xlink="http://www.w3.org/1999/xlink" x="0px" y="0px" width="16.381px" height="12px"
	 viewBox="0 0 16.381 12" xml:space="preserve">
<path fill="#FFFFFF" d="M15.81,4.571h-1.333V0.572C14.477,0.256,14.22,0,13.905,0H2.476C2.161,0,1.905,0.256,1.905,0.572v3.999
	H0.571C0.256,4.571,0,4.828,0,5.144v4.189c0,0.315,0.256,0.572,0.571,0.572h0.572V12h1.143V9.905h11.809V12h1.144V9.905h0.571
	c0.315,0,0.571-0.257,0.571-0.572V5.144C16.381,4.828,16.125,4.571,15.81,4.571z M3.047,1.143h10.286v3.429H11.79
	c0.01-0.063,0.02-0.125,0.02-0.19c0-0.734-0.599-1.333-1.333-1.333H5.905c-0.735,0-1.333,0.599-1.333,1.333
	c0,0.065,0.01,0.128,0.02,0.19H3.047V1.143z M5.714,4.381c0-0.104,0.087-0.19,0.19-0.19h4.572c0.104,0,0.19,0.087,0.19,0.19
	s-0.087,0.19-0.19,0.19H5.905C5.801,4.571,5.714,4.484,5.714,4.381z M15.238,8.763H1.143V5.715h1.333h3.429h4.572h3.429h1.333V8.763
	z"/>
<g>
</g>
<g>
</g>
<g>
</g>
<g>
</g>
<g>
</g>
<g>
</g>
</svg>
