<?xml version="1.0" encoding="utf-8"?>
<!-- Generator: Adobe Illustrator 16.0.0, SVG Export Plug-In . SVG Version: 6.00 Build 0)  -->
<!DOCTYPE svg PUBLIC "-//W3C//DTD SVG 1.1 Basic//EN" "http://www.w3.org/Graphics/SVG/1.1/DTD/svg11-basic.dtd">
<svg version="1.1" baseProfile="basic" id="Layer_1"
	 xmlns="http://www.w3.org/2000/svg" xmlns:xlink="http://www.w3.org/1999/xlink" x="0px" y="0px" width="218.422px" height="48px"
	 viewBox="0 0 218.422 48" xml:space="preserve">
<g>
	<g>
		<g>
			<path fill="#2D3D95" d="M88.072,4.488l6.174,14.263l6.197-14.263l3.448,17.959h-1.938l-2.187-11.492h-0.045l-5.476,12.191
				l-5.453-12.191h-0.046l-2.186,11.492h-1.937L88.072,4.488z"/>
			<g>
				<path fill="#2D3D95" d="M111.223,22.447h-1.891V5.458h1.891V22.447z"/>
				<path fill="#2D3D95" d="M129.882,9.175c-1.353-1.396-3.222-2.253-5.183-2.253c-3.787,0-6.85,3.29-6.85,7.031
					c0,3.74,3.086,7.031,6.895,7.031c1.916,0,3.785-0.902,5.138-2.254v2.344c-1.465,1.057-3.269,1.667-5.071,1.667
					c-4.799,0-8.854-3.899-8.854-8.721c0-4.867,3.989-8.855,8.854-8.855c1.894,0,3.562,0.54,5.071,1.667V9.175z"/>
				<path fill="#2D3D95" d="M137.226,22.447h-1.894V5.458h2.458c3.221,0,6.219,0.855,6.219,4.685c0,2.614-1.646,4.463-4.259,4.688
					l5.408,7.616h-2.322l-5.138-7.457h-0.473V22.447z M137.226,13.322h0.587c2.139,0,4.304-0.406,4.304-3.042
					c0-2.796-2.052-3.066-4.326-3.066h-0.564V13.322z"/>
				<path fill="#2D3D95" d="M166.653,13.975c0,4.89-4.011,8.767-8.856,8.767c-4.844,0-8.855-3.876-8.855-8.767
					c0-4.866,4.012-8.81,8.855-8.81C162.643,5.165,166.653,9.108,166.653,13.975z M150.834,13.953c0,3.83,3.109,7.031,6.963,7.031
					s6.964-3.201,6.964-7.031c0-3.856-3.064-7.031-6.964-7.031C153.899,6.922,150.834,10.097,150.834,13.953z"/>
			</g>
		</g>
		<g>
			<path fill="#2D3D95" d="M87.938,47.549h-3.313V30.558h4.507c3.561,0,5.881,1.421,5.881,5.274c0,3.606-1.961,5.363-5.431,5.363
				h-1.645V47.549z M87.938,38.445h0.676c1.96,0,3.02-0.428,3.02-2.636c0-2.185-1.262-2.501-3.11-2.501h-0.585V38.445z"/>
			<path fill="#2D3D95" d="M110.267,47.549h-4.01l-4.125-6.85h-0.046v6.85h-3.311V30.558h4.483c3.356,0,5.679,1.487,5.679,5.115
				c0,2.165-1.194,4.328-3.469,4.71L110.267,47.549z M102.086,38.379h0.43c1.825,0,3.109-0.541,3.109-2.613
				c0-2.096-1.328-2.503-3.088-2.503h-0.451V38.379z"/>
			<path fill="#2D3D95" d="M120.971,48c-5.184,0-8.405-3.965-8.405-8.968c0-5.049,3.335-8.922,8.405-8.922s8.405,3.873,8.405,8.922
				C129.376,44.035,126.151,48,120.971,48z M120.971,33.375c-3.133,0-4.98,2.771-4.98,5.521c0,2.614,1.307,5.838,4.98,5.838
				c3.672,0,4.979-3.224,4.979-5.838C125.95,36.146,124.103,33.375,120.971,33.375z"/>
			<path fill="#2D3D95" d="M136.562,47.549h-3.313V30.558h4.508c3.56,0,5.881,1.421,5.881,5.274c0,3.606-1.96,5.363-5.43,5.363
				h-1.646V47.549z M136.562,38.445h0.676c1.961,0,3.019-0.428,3.019-2.636c0-2.185-1.262-2.501-3.109-2.501h-0.585V38.445z"/>
			<path fill="#2D3D95" d="M150.713,33.443v3.74h5.271v2.885h-5.271v4.598h5.475v2.883h-8.79V30.558h8.79v2.886H150.713z"/>
			<path fill="#2D3D95" d="M172.141,47.549h-4.013l-4.122-6.85h-0.046v6.85h-3.313V30.558h4.485c3.357,0,5.679,1.487,5.679,5.115
				c0,2.165-1.194,4.328-3.47,4.71L172.141,47.549z M163.96,38.379h0.428c1.826,0,3.11-0.541,3.11-2.613
				c0-2.096-1.329-2.503-3.087-2.503h-0.451V38.379z"/>
			<path fill="#2D3D95" d="M180.544,47.549h-3.313V33.443h-3.425v-2.886h10.162v2.886h-3.425V47.549z"/>
			<path fill="#2D3D95" d="M190.75,47.549h-3.313V30.558h3.313V47.549z"/>
			<path fill="#2D3D95" d="M198.726,33.443v3.74H204v2.885h-5.274v4.598h5.477v2.883h-8.787V30.558h8.787v2.886H198.726z"/>
			<path fill="#2D3D95" d="M216.304,34.299c-0.631-0.855-1.444-1.396-2.548-1.396c-1.059,0-2.072,0.812-2.072,1.916
				c0,2.861,6.738,1.668,6.738,7.367c0,3.404-2.118,5.814-5.59,5.814c-2.343,0-4.057-1.352-5.227-3.312l2.14-2.097
				c0.451,1.307,1.646,2.479,3.065,2.479c1.352,0,2.185-1.148,2.185-2.455c0-1.759-1.622-2.254-2.952-2.772
				c-2.186-0.901-3.785-2.005-3.785-4.643c0-2.815,2.096-5.09,4.957-5.09c1.511,0,3.606,0.743,4.643,1.892L216.304,34.299z"/>
		</g>
	</g>
	<g>
		<polygon fill="#D7DF28" points="0,48 9.238,32.001 18.475,48 		"/>
		<polygon fill="#C7C8CA" points="22.354,48 27.714,38.717 33.073,48 		"/>
		<polygon fill="#3DACBA" points="46.19,32.001 36.953,48 27.714,32.001 		"/>
		<polygon fill="#C7C8CA" points="40.83,48 46.19,38.717 51.55,48 		"/>
		<polygon fill="#5B449B" points="64.666,32.001 55.43,48 46.191,32.001 		"/>
		<polygon fill="#FEDD00" points="46.19,32.001 36.953,16.001 27.714,32.001 		"/>
		<polygon fill="#F8A088" points="36.953,16.001 46.19,32.001 55.428,16.001 		"/>
		<polygon fill="#B6202B" points="64.666,32.001 55.43,16.001 46.191,32.001 		"/>
		<polygon fill="#EF4137" points="36.953,16 46.19,0 55.428,16 		"/>
		<polygon fill="#008E47" points="27.714,32.001 18.476,48 9.238,32.001 		"/>
		<polygon fill="#572465" points="55.43,48 64.666,32.001 73.904,48 		"/>
		<polygon fill="#11BFF1" points="27.714,32.001 18.476,16.001 9.238,32.001 		"/>
		<polygon fill="#0867B2" points="18.476,16.001 27.714,32.001 36.952,16.001 		"/>
		<polygon fill="#2D3D95" points="18.476,16 27.714,0 36.952,16 		"/>
		<polygon fill="#C7C8CA" points="42.312,0 36.952,9.286 31.592,0 		"/>
	</g>
</g>
<g>
</g>
<g>
</g>
<g>
</g>
<g>
</g>
<g>
</g>
<g>
</g>
</svg>
